<svg width="55" height="51" viewBox="0 0 55 51" fill="none" xmlns="http://www.w3.org/2000/svg">
<path d="M54.1923 23.2227C54.6384 23.2227 55 22.8611 55 22.415V14.6569C55 11.6877 52.5844 9.27219 49.6153 9.27219H47.9505V8.20327C47.9505 7.08158 47.0379 6.16903 45.9163 6.16903H44.4773C43.3556 6.16903 42.4431 7.08158 42.4431 8.20327V9.27219H38.3301V8.20327C38.3301 7.25216 37.6731 6.45376 36.7898 6.23214V4.44289C36.7898 2.05102 34.8438 0.10498 32.4519 0.10498H29.2209C28.7748 0.10498 28.4132 0.466599 28.4132 0.912645C28.4132 1.35869 28.7748 1.72031 29.2209 1.72031H32.4519C33.953 1.72031 35.1744 2.9416 35.1744 4.44289V6.16914H33.5591V4.44289C33.5591 3.8324 33.0624 3.33564 32.4519 3.33564H22.6555C22.045 3.33564 21.5483 3.8323 21.5483 4.44289V6.16914H19.9329V4.44289C19.9329 2.94171 21.1542 1.72031 22.6555 1.72031H25.7788C26.2249 1.72031 26.5865 1.35869 26.5865 0.912645C26.5865 0.466599 26.2249 0.10498 25.7788 0.10498H22.6555C20.2637 0.10498 18.3176 2.05091 18.3176 4.44289V6.23224C17.4342 6.45387 16.7772 7.25227 16.7772 8.20338V9.27229H12.6643V8.20338C12.6643 7.08169 11.7517 6.16914 10.63 6.16914H9.19144C8.06975 6.16914 7.1572 7.08169 7.1572 8.20338V9.27229H5.38475C2.41556 9.27229 0 11.6879 0 14.657V45.5106C0 48.4798 2.41556 50.8953 5.38475 50.8953H49.6154C52.5846 50.8953 55.0001 48.4798 55.0001 45.5106V25.8571C55.0001 25.411 54.6385 25.0494 54.1925 25.0494C53.7464 25.0494 53.3848 25.411 53.3848 25.8571V45.5106C53.3848 47.5891 51.6939 49.28 49.6154 49.28H43.9778V31.6701H44.1498C46.2425 31.6701 47.9448 29.9677 47.9448 27.8752V23.8928C47.9448 21.8002 46.2423 20.0978 44.1498 20.0978H43.9778V10.8876H49.6154C51.6939 10.8876 53.3848 12.5785 53.3848 14.657V22.4151C53.3847 22.8611 53.7463 23.2227 54.1923 23.2227ZM38.7321 20.0978C36.6395 20.0978 34.9372 21.8002 34.9372 23.8928V27.8752C34.9372 29.9678 36.6396 31.6701 38.7321 31.6701H38.9042V49.28H16.2036V43.4809L20.9468 41.7931C21.7868 41.4941 22.2269 40.5676 21.9281 39.7276L20.2981 35.1469C19.9993 34.307 19.0727 33.8667 18.2326 34.1657L16.2036 34.8877V31.6702H16.3757C18.4683 31.6702 20.1706 29.9678 20.1706 27.8753V23.893C20.1706 21.8004 18.4682 20.0979 16.3757 20.0979H16.2036V10.8877H38.9042V20.0979H38.7321V20.0978ZM11.13 43.5713L8.55726 44.4854L6.92825 39.9027L11.13 38.4075V43.5713ZM10.958 30.0548C9.75605 30.0548 8.77834 29.077 8.77834 27.8752V23.8928C8.77834 22.6909 9.75616 21.7131 10.958 21.7131H16.3756C17.5775 21.7131 18.5552 22.6909 18.5552 23.8928V27.8752C18.5552 29.0771 17.5774 30.0548 16.3756 30.0548H10.958ZM16.2036 36.6025L18.7764 35.6885L20.4053 40.2712L16.2036 41.7663V36.6025ZM32.0189 9.27229V8.20338C32.0189 7.97238 32.2069 7.78447 32.4379 7.78447H36.296C36.527 7.78447 36.7149 7.97238 36.7149 8.20338V9.27229H32.0189ZM31.9439 4.95097V6.23224C31.0605 6.45387 30.4036 7.25227 30.4036 8.20338V9.27229H24.7041V8.20338C24.7041 7.25227 24.0471 6.45387 23.1638 6.23224V4.95097H31.9439ZM18.3928 8.20338C18.3928 7.97238 18.5807 7.78447 18.8117 7.78447H22.6698C22.9008 7.78447 23.0888 7.97238 23.0888 8.20338V9.27229H18.3928V8.20338ZM8.77253 8.20338C8.77253 7.97238 8.96044 7.78447 9.19144 7.78447H10.6304C10.8614 7.78447 11.0493 7.97238 11.0493 8.20338V9.27229H8.77253V8.20338ZM1.61533 45.5106V14.657C1.61533 12.5785 3.30626 10.8876 5.38475 10.8876H7.96486H11.13V13.7543C11.13 14.2003 11.4917 14.562 11.9377 14.562C12.3838 14.562 12.7454 14.2003 12.7454 13.7543V10.8876H14.5883V20.0978H12.7454V17.1963C12.7454 16.7503 12.3838 16.3887 11.9377 16.3887C11.4917 16.3887 11.13 16.7503 11.13 17.1963V20.0978H10.958C8.86536 20.0978 7.16301 21.8002 7.16301 23.8928V27.8752C7.16301 29.9678 8.86546 31.6701 10.958 31.6701H11.13V36.693L6.3869 38.3808C5.97995 38.5256 5.65376 38.8202 5.46843 39.2104C5.28309 39.6005 5.2608 40.0395 5.40564 40.4463L7.03562 45.0269C7.18046 45.4338 7.4751 45.76 7.86514 45.9453C8.08537 46.0499 8.3211 46.1025 8.55791 46.1025C8.74055 46.1025 8.92394 46.0711 9.10109 46.0081L11.1303 45.286V49.2799H5.38475C3.30626 49.28 1.61533 47.589 1.61533 45.5106ZM12.7454 49.28V31.6701H14.5883V49.28H12.7454ZM42.3623 49.28H40.5195V31.6701H42.3623V49.28ZM46.3294 23.8927V27.8751C46.3294 29.077 45.3515 30.0547 44.1497 30.0547H38.7321C37.5302 30.0547 36.5525 29.0769 36.5525 27.8751V23.8927C36.5525 22.6908 37.5303 21.713 38.7321 21.713H44.1497C45.3517 21.7131 46.3294 22.6909 46.3294 23.8927ZM40.5196 20.0978V10.8876H42.3623V20.0978H40.5196ZM44.0585 9.27229V8.20338C44.0585 7.97238 44.2464 7.78447 44.4774 7.78447H45.9164C46.1474 7.78447 46.3353 7.97238 46.3353 8.20338V9.27229H44.0585Z" fill="#FBBE07"/>
<path d="M16.94 27.6317V24.136C16.94 23.69 16.5783 23.3284 16.1323 23.3284H11.2013C10.7553 23.3284 10.3937 23.69 10.3937 24.136V27.6317C10.3937 28.0777 10.7553 28.4394 11.2013 28.4394H16.1323C16.5783 28.4394 16.94 28.0777 16.94 27.6317ZM15.3246 26.824H12.009V24.9437H15.3246V26.824Z" fill="#FBBE07"/>
<path d="M38.1678 24.136V27.6317C38.1678 28.0777 38.5295 28.4394 38.9755 28.4394H43.9065C44.3525 28.4394 44.7141 28.0777 44.7141 27.6317V24.136C44.7141 23.69 44.3525 23.3284 43.9065 23.3284H38.9755C38.5295 23.3284 38.1678 23.69 38.1678 24.136ZM39.7832 24.9437H43.0988V26.824H39.7832V24.9437Z" fill="#FBBE07"/>
<path d="M34.1112 18.657C34.1639 18.2195 33.9675 17.798 33.5985 17.5571L27.7716 13.7502C27.4804 13.5599 27.1234 13.5116 26.7922 13.6176C26.4609 13.7236 26.1983 13.9702 26.0717 14.2942V14.2943L23.4159 21.0925C23.2503 21.5165 23.344 21.983 23.6604 22.3102C23.8825 22.54 24.1773 22.6624 24.4817 22.6624C24.6107 22.6624 24.7415 22.6404 24.8693 22.5954L33.352 19.6042C33.7677 19.4574 34.0586 19.0946 34.1112 18.657ZM25.2901 20.7339L27.3678 15.4157L31.9262 18.3938L25.2901 20.7339Z" fill="#FBBE07"/>
<path d="M27.0783 40.9901C27.0783 43.631 29.2269 45.7798 31.8679 45.7798C34.509 45.7798 36.6576 43.6312 36.6576 40.9901C36.6576 38.349 34.509 36.2004 31.8679 36.2004C29.2269 36.2004 27.0783 38.349 27.0783 40.9901ZM35.0422 40.9901C35.0422 42.7404 33.6182 44.1644 31.8678 44.1644C30.1175 44.1644 28.6935 42.7405 28.6935 40.9901C28.6935 39.2397 30.1175 37.8158 31.8678 37.8158C33.6182 37.8158 35.0422 39.2397 35.0422 40.9901Z" fill="#FBBE07"/>
</svg>
