<svg width="55" height="40" viewBox="0 0 55 40" fill="none" xmlns="http://www.w3.org/2000/svg">
<g clip-path="url(#clip0_66_22)">
<path d="M52.4697 28.3728V23.6546C52.4697 20.8426 51.1322 18.1991 48.8784 16.514H50.1211C51.6693 16.514 52.9331 15.2501 52.9331 13.6914C52.9331 12.1432 51.6693 10.8794 50.1211 10.8794H46.2981L44.6024 4.48657L44.5919 4.45498C43.8863 1.83254 41.485 0 38.7678 0H21.7694C21.2006 0 20.8952 0.45287 20.8952 0.895208C20.8952 1.33755 21.1901 1.79042 21.7694 1.79042H38.7678C40.2528 1.79042 41.6219 2.56977 42.3907 3.82306H11.743C12.5118 2.55924 13.881 1.79042 15.366 1.79042H17.6198C18.1885 1.79042 18.4939 1.33755 18.4939 0.895208C18.4939 0.45287 18.1991 0 17.6198 0H15.366C12.6488 0 10.2475 1.83254 9.53133 4.46551L7.82517 10.8794H4.0337C2.48552 10.8794 1.2217 12.1432 1.2217 13.7019C1.2217 15.2501 2.48552 16.514 4.0337 16.514H5.23433C2.98052 18.1991 1.64297 20.8426 1.64297 23.6546V28.3728C0.684571 28.6467 0 29.5313 0 30.5635V32.8699C0 34.1232 1.02159 35.1448 2.27488 35.1448H4.59189V37.841C4.59189 39.0311 5.56082 40 6.75092 40H12.7436C13.9337 40 14.9026 39.0311 14.9026 37.841V35.1448H39.2312V37.841C39.2312 39.0311 40.2001 40 41.3902 40H47.3723C48.5624 40 49.5313 39.0311 49.5313 37.841V35.1448H51.8483C53.1016 35.1448 54.1232 34.1232 54.1232 32.8699V30.5635C54.1338 29.5313 53.4492 28.6467 52.4697 28.3728ZM47.7409 35.1448V37.841C47.7409 38.0411 47.5724 38.2096 47.3723 38.2096H41.3902C41.1901 38.2096 41.0216 38.0411 41.0216 37.841V35.1448H47.7409ZM12.7436 38.2096H6.76145C6.56135 38.2096 6.39284 38.0411 6.39284 37.841V35.1448H13.1227V37.841C13.1122 38.0516 12.9437 38.2096 12.7436 38.2096ZM50.1211 14.7235H47.3091L46.7615 12.6698H50.1106C50.6688 12.6698 51.1322 13.1332 51.1322 13.7019C51.1427 14.2601 50.6898 14.7235 50.1211 14.7235ZM43.5598 14.7446H10.574C9.91048 14.7446 9.2575 14.8183 8.60453 14.9658L11.0795 5.62401H43.0437L45.5187 14.9658C44.8763 14.8183 44.2233 14.7446 43.5598 14.7446ZM42.0958 29.7946C42.2328 29.6367 42.317 29.4155 42.317 29.1838C42.317 28.7414 42.0221 28.2886 41.4429 28.2886H3.45445V23.6546C3.45445 19.7262 6.6456 16.535 10.574 16.535H43.5598C47.4882 16.535 50.6793 19.7262 50.6793 23.6546V28.2886H45.603C45.0342 28.2886 44.7288 28.7414 44.7288 29.1838C44.7288 29.6261 45.0237 30.079 45.603 30.079H51.8589C52.1222 30.079 52.3433 30.3002 52.3433 30.5635V32.8699C52.3433 33.1332 52.1222 33.3544 51.8589 33.3544H2.27488C2.01159 33.3544 1.79042 33.1332 1.79042 32.8699V30.5635C1.79042 30.3002 2.01159 30.079 2.27488 30.079H41.4323C41.7062 30.079 41.9273 29.9737 42.0958 29.7946ZM4.04423 12.6698H7.36177L6.81411 14.7235H4.04423C3.48605 14.7235 3.02264 14.2601 3.02264 13.6914C3.02264 13.1332 3.48605 12.6698 4.04423 12.6698Z" fill="#FBBE07"/>
<path d="M10.7214 19.0415C8.52028 19.0415 6.72986 20.8424 6.72986 23.0541C6.72986 25.2658 8.52028 27.0668 10.7214 27.0668C12.9226 27.0668 14.713 25.2658 14.713 23.0541C14.7235 20.8424 12.9331 19.0415 10.7214 19.0415ZM12.9331 23.0541C12.9331 24.2758 11.9431 25.2764 10.732 25.2764C9.5208 25.2764 8.53081 24.2758 8.53081 23.0541C8.53081 21.8324 9.5208 20.8319 10.732 20.8319C11.9431 20.8319 12.9331 21.8324 12.9331 23.0541Z" fill="#FBBE07"/>
<path d="M47.4039 23.0541C47.4039 20.8424 45.6135 19.0415 43.4123 19.0415C41.2112 19.0415 39.4207 20.8424 39.4207 23.0541C39.4207 25.2658 41.2112 27.0668 43.4123 27.0668C45.6135 27.0668 47.4039 25.2658 47.4039 23.0541ZM45.6135 23.0541C45.6135 24.2758 44.6235 25.2764 43.4123 25.2764C42.2012 25.2764 41.2112 24.2758 41.2112 23.0541C41.2112 21.8324 42.2012 20.8319 43.4123 20.8319C44.6235 20.8319 45.6135 21.8324 45.6135 23.0541Z" fill="#FBBE07"/>
<path d="M35.6398 20.7688H18.4939C17.999 20.7688 17.5987 21.169 17.5987 21.664V25.2554C17.5987 25.7504 17.999 26.1506 18.4939 26.1506H35.6398C36.1348 26.1506 36.535 25.7504 36.535 25.2554V21.664C36.535 21.4218 36.4402 21.2006 36.2717 21.0321C36.1032 20.8636 35.882 20.7688 35.6398 20.7688ZM34.7446 24.3602H19.3892V22.5592H34.7446V24.3602Z" fill="#FBBE07"/>
</g>
<defs>
<clipPath id="clip0_66_22">
<rect width="54.1338" height="40" fill="white"/>
</clipPath>
</defs>
</svg>
