<svg width="60" height="52" viewBox="0 0 60 52" fill="none" xmlns="http://www.w3.org/2000/svg">
<path d="M19.2036 23.6542C17.7259 23.2287 16.2481 23.0129 14.8106 23.0129C12.5907 23.0129 10.7385 23.5201 9.30223 24.1413C10.6869 19.0723 14.0131 10.3258 20.6392 9.34085C21.2529 9.24959 21.7558 8.80588 21.9232 8.2086L23.3714 3.0288C23.4935 2.59075 23.4211 2.12187 23.1712 1.74172C22.9214 1.36158 22.5198 1.10794 22.0698 1.04626C21.5808 0.979543 21.0823 0.945557 20.5883 0.945557C12.6348 0.945557 4.75812 9.24707 1.43436 21.1335C-0.516714 28.1071 -1.08882 38.5913 3.71712 45.1903C6.40646 48.8829 10.33 50.8547 15.3789 51.0517C15.3997 51.0523 15.4198 51.053 15.4406 51.053C21.6702 51.053 27.1942 46.8575 28.8747 40.8514C29.8785 37.2607 29.4248 33.4952 27.5958 30.2457C25.7863 27.0327 22.8062 24.6908 19.2036 23.6542Z" fill="#FFF5D7"/>
<path d="M58.1994 30.2463C56.3899 27.0327 53.4098 24.6908 49.8072 23.6542C48.3294 23.2287 46.8517 23.0129 45.4148 23.0129C43.195 23.0129 41.3421 23.5201 39.9058 24.1413C41.2905 19.0723 44.6167 10.3258 51.2435 9.34085C51.8571 9.24959 52.3594 8.80588 52.5274 8.2086L53.9756 3.0288C54.0977 2.59075 54.0253 2.12187 53.7755 1.74172C53.5262 1.36158 53.1247 1.10794 52.674 1.04626C52.1856 0.979543 51.6872 0.945557 51.1925 0.945557C43.239 0.945557 35.3623 9.24707 32.038 21.1335C30.0875 28.1071 29.5154 38.5913 34.322 45.1916C37.0107 48.8835 40.9349 50.856 45.9831 51.0523C46.0039 51.053 46.024 51.0536 46.0454 51.0536C52.2744 51.0536 57.7991 46.8582 59.4795 40.852C60.4821 37.2614 60.0277 33.4952 58.1994 30.2463Z" fill="#FFF5D7"/>
</svg>
