<svg width="47" height="50" viewBox="0 0 47 50" fill="none" xmlns="http://www.w3.org/2000/svg">
<g clip-path="url(#clip0_61_7)">
<path d="M37.1206 48.3464H2.77237C2.14981 48.3464 1.6537 47.8406 1.6537 47.2277V27.4709C1.6537 27.0137 1.28405 26.644 0.826848 26.644C0.36965 26.644 0 27.0137 0 27.4709V47.2277C0 48.755 1.24514 50.0001 2.77237 50.0001H37.1206C37.5778 50.0001 37.9475 49.6305 37.9475 49.1733C37.9475 48.7161 37.5778 48.3464 37.1206 48.3464Z" fill="#FBBE07"/>
<path d="M43.6673 23.1907H41.6148V12.4416C41.6148 12.2276 41.5272 12.0136 41.3716 11.858L37.2374 7.72374V2.28599C37.2374 1.0214 36.216 0 34.9514 0H6.51751C5.25292 0 4.23152 1.0214 4.23152 2.28599V18.3658H2.28599C1.0214 18.3658 0 19.3872 0 20.6518V24.0564C0 24.5136 0.36965 24.8833 0.826848 24.8833C1.28405 24.8833 1.6537 24.5136 1.6537 24.0564V20.6518C1.6537 20.3016 1.9358 20.0195 2.28599 20.0195H13.8619C14.0953 20.0195 14.3093 20.1459 14.4261 20.3599L16.5467 24.4066C16.6926 24.679 16.9747 24.8541 17.2763 24.8541H43.6673C44.2899 24.8541 44.786 25.3599 44.786 25.9728V47.2276C44.786 47.8502 44.2802 48.3463 43.6673 48.3463H40.5156C40.0584 48.3463 39.6887 48.716 39.6887 49.1731C39.6887 49.6303 40.0584 50 40.5156 50H43.6673C45.1946 50 46.4397 48.7549 46.4397 47.2276V25.9728C46.4494 24.4358 45.2043 23.1907 43.6673 23.1907ZM35.9922 21.9455C36.4494 21.9455 36.8191 21.5759 36.8191 21.1187C36.8191 20.6615 36.4494 20.2918 35.9922 20.2918H16.2646L15.8949 19.5914C15.4961 18.8327 14.7179 18.3658 13.8716 18.3658H10.9339V6.10895C10.9339 5.44747 11.4689 4.91245 12.1304 4.91245H31.6148V10.428C31.6148 11.9942 32.8891 13.2782 34.465 13.2782H39.9805V23.2004H17.7821L17.1304 21.9553H35.9922V21.9455ZM34.4553 11.6148C33.7938 11.6148 33.2588 11.0798 33.2588 10.4183V6.07977L38.7938 11.6148H34.4553ZM35.5934 6.07977L33.0156 3.50195C32.8599 3.3463 32.6459 3.25875 32.4319 3.25875H12.1206C10.5545 3.25875 9.27043 4.53307 9.27043 6.10895V18.3658H5.88521V2.28599C5.88521 1.9358 6.16732 1.6537 6.51751 1.6537H34.9611C35.3113 1.6537 35.5934 1.9358 35.5934 2.28599V6.07977Z" fill="#FBBE07"/>
<path d="M35.9922 15.467H14.9903C14.5331 15.467 14.1634 15.8367 14.1634 16.2939C14.1634 16.7511 14.5331 17.1207 14.9903 17.1207H35.9922C36.4494 17.1207 36.8191 16.7511 36.8191 16.2939C36.8191 15.8367 36.4494 15.467 35.9922 15.467Z" fill="#FBBE07"/>
</g>
<defs>
<clipPath id="clip0_61_7">
<rect width="46.4494" height="50" fill="white"/>
</clipPath>
</defs>
</svg>
