<svg width="60" height="60" viewBox="0 0 60 60" fill="none" xmlns="http://www.w3.org/2000/svg">
<g clip-path="url(#clip0_45_71)">
<path d="M36.9196 42.3853H33.6305C33.1451 42.3853 32.7516 42.7788 32.7516 43.2642C32.7516 43.7497 33.1451 44.1431 33.6305 44.1431H36.9196C37.405 44.1431 37.7985 43.7497 37.7985 43.2642C37.7985 42.7788 37.405 42.3853 36.9196 42.3853Z" fill="#FBBE07"/>
<path d="M56.2793 32.9758L51.4932 31.1298L49.053 28.6896C48.8963 28.5329 48.6944 28.448 48.4881 28.4348V26.4931C49.6382 25.2668 50.4569 23.714 50.7872 21.9646C50.9923 21.9739 51.1994 21.9573 51.4037 21.9156C52.5731 21.6762 53.4219 20.5912 53.4219 19.3358V18.6949C53.4219 17.9687 53.1274 17.3022 52.6478 16.8256C53.424 12.6045 52.7847 9.16452 50.7909 6.86213C48.8623 4.6352 45.7552 3.57079 41.8058 3.78442C38.1571 3.98165 35.8016 5.66048 35.0553 6.27466C34.6468 6.32318 33.951 6.46662 33.2467 6.8892C32.2705 7.4749 31.1069 8.70526 31.1069 11.2404C31.1069 13.452 31.4604 15.2984 31.7163 16.3459C30.8585 16.7638 30.2846 17.6694 30.2846 18.7048V19.3357C30.2846 20.591 31.1334 21.6761 32.3028 21.9155C32.5071 21.9573 32.7143 21.9737 32.9192 21.9645C33.2496 23.7139 34.0684 25.2667 35.2183 26.493V28.4347C35.0121 28.4479 34.8101 28.5328 34.6535 28.6894L32.2133 31.1296L27.4272 32.9757C27.0132 33.1353 26.6177 33.3424 26.2518 33.5909C25.8503 33.8638 25.746 34.4103 26.0187 34.8118C26.1888 35.0621 26.4652 35.1969 26.7465 35.1969C26.9165 35.1969 27.0883 35.1475 27.2396 35.0449C27.4947 34.8716 27.7707 34.7272 28.0598 34.6156L32.5016 32.9023L35.8977 37.9966C36.3186 38.6281 36.9934 39.0333 37.7487 39.108C37.8327 39.1163 37.9167 39.1205 38.0002 39.1205C38.4374 39.1205 38.8616 39.0055 39.2371 38.793L38.5083 55.3245C38.4868 55.8094 38.8627 56.2199 39.3477 56.2413C39.3608 56.2418 39.374 56.2421 39.3871 56.2421C39.8547 56.2421 40.2437 55.8735 40.2645 55.4018L40.9409 40.0571H42.7655L43.4419 55.4018C43.4626 55.8736 43.8517 56.2421 44.3193 56.2421C44.3324 56.2421 44.3455 56.2418 44.3587 56.2413C44.8436 56.2199 45.2194 55.8094 45.1981 55.3245L44.4693 38.793C44.8448 39.0055 45.2689 39.1205 45.7062 39.1205C45.7896 39.1205 45.8737 39.1163 45.9577 39.108C46.713 39.0333 47.3876 38.6281 47.8087 37.9966L51.2048 32.9023L55.6466 34.6156C56.2695 34.8559 56.8058 35.2392 57.2274 35.7174L54.1886 38.7562C53.0907 39.8542 52.4861 41.3139 52.4861 42.8664V55.3633C52.4861 55.8487 52.8796 56.2422 53.365 56.2422C53.8504 56.2422 54.2439 55.8487 54.2439 55.3633V42.8664C54.2439 41.7834 54.6657 40.7651 55.4315 39.9992L58.0985 37.3323C58.2056 37.7252 58.2556 38.1383 58.2388 38.5606L57.558 55.3277C57.5383 55.8127 57.9156 56.2218 58.4005 56.2416C58.4127 56.2421 58.4247 56.2423 58.4368 56.2423C58.9057 56.2423 59.2952 55.8719 59.3143 55.3991L59.9953 38.6317C60.095 36.1445 58.6017 33.8716 56.2793 32.9758ZM34.6398 21.6021C34.4848 20.7583 33.7033 20.1449 32.8599 20.2074C32.7933 20.2122 32.7246 20.2075 32.6554 20.1934C32.306 20.1219 32.0424 19.7532 32.0424 19.3358V18.7047C32.0424 18.297 32.3149 17.9297 32.6626 17.8687C32.956 17.8171 33.2371 17.9248 33.4148 18.1567C33.5762 18.3671 33.7915 18.5175 34.0372 18.5916C34.3972 18.7003 34.7941 18.6365 35.0993 18.4211C35.6489 18.0331 36.1338 17.559 36.5406 17.012C36.8303 16.6225 36.7492 16.0719 36.3598 15.7824C35.9701 15.4927 35.4197 15.5736 35.13 15.9632C34.9271 16.236 34.6979 16.4836 34.4456 16.7028C34.1669 16.4644 33.8414 16.2921 33.4925 16.1938C33.2667 15.3287 32.8647 13.4754 32.8647 11.2402C32.8647 9.89401 33.2797 8.94819 34.098 8.42905C34.7366 8.02393 35.4124 8.00776 35.4119 8.00764C35.6366 8.00764 35.8553 7.91916 36.0184 7.76482C36.0398 7.74467 38.2004 5.73958 41.9005 5.53954C45.2875 5.35673 47.9022 6.21173 49.4618 8.01268C51.0338 9.82792 51.5573 12.6148 50.9894 16.1029C50.754 16.0945 50.4963 16.1124 50.2397 16.1551L49.414 14.1721C49.2455 13.7675 48.8042 13.5491 48.3802 13.6596C48.2985 13.6809 40.182 15.7385 36.7787 11.5015C36.4748 11.1231 35.9217 11.0626 35.5431 11.3666C35.1647 11.6706 35.1042 12.2237 35.4083 12.6022C38.8836 16.929 45.7794 15.9878 48.0749 15.5288L48.7135 17.0622C48.9881 17.7213 49.6905 18.0813 50.3828 17.9181C50.667 17.8512 50.9385 17.8497 51.0405 17.8698C51.3959 17.9406 51.6639 18.2951 51.6639 18.6947V19.3357C51.6639 19.7532 51.4004 20.1218 51.0509 20.1933C50.9819 20.2075 50.9129 20.2122 50.8464 20.2073C50.0031 20.1458 49.2217 20.758 49.0666 21.6021C48.4272 25.0831 45.3935 27.6097 41.8532 27.6097C38.3128 27.6097 35.2792 25.0831 34.6398 21.6021ZM38.5388 37.1385C38.3159 37.3613 38.0568 37.3722 37.922 37.3589C37.7873 37.3456 37.5353 37.284 37.3604 37.0217L33.9391 31.8898L35.315 30.5139L40.5674 35.1098L38.5388 37.1385ZM41.0183 38.2994L41.0715 37.0915L41.8531 36.3099L42.6346 37.0915L42.6878 38.2994H41.0183ZM41.8532 33.899L36.9762 29.6316V27.9495C38.3941 28.8513 40.0718 29.3675 41.8532 29.3675C43.6346 29.3675 45.3123 28.8513 46.7303 27.9495V29.6316L41.8532 33.899ZM46.3462 37.0217C46.1712 37.2841 45.9191 37.3456 45.7846 37.3589C45.6497 37.3722 45.3906 37.3613 45.1677 37.1383L43.1391 35.1097L48.3914 30.5138L49.7674 31.8897L46.3462 37.0217Z" fill="#FBBE07"/>
<path d="M27.8726 37.582L23.5809 35.7087L21.2349 33.3628C21.0778 33.2055 20.8758 33.1211 20.6701 33.108V31.7253C22.6751 30.4077 24.1423 28.3123 24.6137 25.8154C24.8446 25.8257 25.0777 25.8035 25.3073 25.7493C26.432 25.4832 27.2482 24.4054 27.2482 23.1866V22.5458C27.2482 21.6554 26.8064 20.8545 26.1219 20.3845C26.3232 19.587 26.4259 18.771 26.4259 17.9496C26.4259 14.3083 24.4576 11.1011 21.4908 9.25965C21.4591 6.22061 18.8652 3.75732 15.6797 3.75732C12.4941 3.75732 9.90018 6.22061 9.86854 9.25965C6.90181 11.1011 4.93352 14.3085 4.93352 17.9496C4.93352 18.7685 5.03547 19.5822 5.23563 20.3775C4.55149 20.8451 4.11121 21.6498 4.11121 22.5554V23.1866C4.11121 24.4054 4.92742 25.4832 6.05208 25.7493C6.28177 25.8037 6.51473 25.8257 6.74571 25.8154C7.21716 28.3123 8.68447 30.4077 10.6894 31.7253V33.108C10.4838 33.1211 10.2817 33.2055 10.1246 33.3628L7.77861 35.7087L3.48707 37.582C1.3035 38.5352 -0.0957204 40.7749 0.00517846 43.1553L0.524204 55.4007C0.544243 55.8729 0.933424 56.2424 1.40171 56.2424C1.41425 56.2424 1.4269 56.2422 1.43956 56.2416C1.9246 56.2211 2.30101 55.8113 2.2805 55.3262L1.76136 43.0808C1.72796 42.2918 1.93304 41.5262 2.31859 40.8672L4.62543 43.6355C5.35446 44.5103 5.75583 45.6191 5.75583 46.7577V55.3635C5.75583 55.8489 6.14934 56.2424 6.63474 56.2424C7.12013 56.2424 7.51365 55.8489 7.51365 55.3635V46.7577C7.51365 45.2087 6.96743 43.7003 5.97579 42.5102L3.5234 39.5673C3.73187 39.4236 3.95347 39.2963 4.19031 39.193L7.93048 37.5603L10.5735 41.8504C10.8345 42.2741 11.266 42.5613 11.7575 42.6386C11.8458 42.6526 11.9344 42.6594 12.0227 42.6594C12.4245 42.6594 12.8159 42.517 13.1262 42.2522L14.8011 40.8231V55.3634C14.8011 55.8488 15.1946 56.2423 15.68 56.2423C16.1654 56.2423 16.5589 55.8488 16.5589 55.3634V40.8233L18.2336 42.2524C18.544 42.5172 18.9354 42.6596 19.3372 42.6596C19.4253 42.6596 19.514 42.6527 19.6024 42.6389C20.0939 42.5615 20.5254 42.2743 20.7864 41.8507L23.4294 37.5604L27.1696 39.1931C27.4063 39.2964 27.628 39.4237 27.8365 39.5674L25.3841 42.5103C24.3925 43.7003 23.8462 45.2088 23.8462 46.7578V55.3636C23.8462 55.849 24.2398 56.2425 24.7252 56.2425C25.2105 56.2425 25.6041 55.849 25.6041 55.3636V46.7578C25.6041 45.6192 26.0056 44.5104 26.7345 43.6356L29.0413 40.8674C29.4269 41.5263 29.6319 42.2919 29.5985 43.0809L29.0795 55.3264C29.059 55.8113 29.4354 56.2211 29.9205 56.2417C29.9331 56.2423 29.9456 56.2425 29.9583 56.2425C30.4266 56.2425 30.8158 55.8732 30.8358 55.4008L31.3548 43.1554C31.4556 40.775 30.0563 38.5352 27.8726 37.582ZM15.6799 5.51514C17.5497 5.51514 19.1273 6.708 19.5938 8.32426C18.3805 7.86629 17.0602 7.61445 15.6799 7.61445C14.2995 7.61445 12.9793 7.86629 11.7659 8.32426C12.2325 6.708 13.8099 5.51514 15.6799 5.51514ZM8.46638 25.4532C8.31146 24.609 7.52876 23.9959 6.68665 24.0583C6.612 24.0635 6.53489 24.0572 6.45708 24.0387C6.12192 23.9594 5.86915 23.593 5.86915 23.1866V22.5554C5.86915 22.1477 6.14161 21.7805 6.48931 21.7194C6.78274 21.6679 7.06364 21.7757 7.2413 22.0074C7.40267 22.2178 7.61794 22.3683 7.86392 22.4426C8.2238 22.5513 8.62095 22.4875 8.92588 22.272C9.46717 21.8899 9.94576 21.4242 10.3484 20.888C10.6399 20.4999 10.5615 19.9488 10.1733 19.6575C9.7851 19.3661 9.2342 19.4445 8.94275 19.8326C8.74342 20.098 8.519 20.3393 8.2722 20.5536C7.89615 20.2321 7.43501 20.0307 6.94587 19.9697C6.77747 19.3077 6.69134 18.6307 6.69134 17.9497C6.69134 13.2203 10.7235 9.37239 15.6799 9.37239C20.6361 9.37239 24.6683 13.2201 24.6683 17.9497C24.6683 18.6294 24.5827 19.305 24.4148 19.9658C24.1835 19.9842 23.9484 20.0221 23.7308 20.0786L23.0701 19.5353C22.7381 19.2622 22.3202 19.1256 21.8973 19.1508C20.6054 19.2271 13.9892 19.4018 10.5948 15.3394C10.2835 14.9669 9.72932 14.9173 9.35678 15.2285C8.98424 15.5398 8.93467 16.0941 9.24592 16.4665C10.9201 18.47 13.3755 19.8248 16.5439 20.4933C18.9698 21.005 21.1263 20.9554 21.9712 20.9072L23.002 21.7548C23.2857 21.9881 23.6836 22.0211 24.0013 21.8361C24.1503 21.7549 24.6496 21.6774 24.8674 21.7208C25.2229 21.7915 25.4907 22.1461 25.4907 22.5458V23.1866C25.4907 23.5931 25.238 23.9595 24.9028 24.0387C24.8251 24.0571 24.7479 24.0638 24.6732 24.0581C23.8316 23.997 23.0484 24.609 22.8934 25.453C22.254 28.9341 19.2204 31.4607 15.68 31.4607C12.1395 31.4607 9.10576 28.9341 8.46638 25.4532ZM12.0355 40.8723L9.39193 36.5813L10.7462 35.2271L14.3858 38.8667L12.0355 40.8723ZM15.6799 37.6748L12.4474 34.4423V32.624C13.4565 33.0081 14.5469 33.2185 15.6799 33.2185C16.8129 33.2185 17.9033 33.0081 18.9124 32.6241V34.4423L15.6799 37.6748ZM19.3243 40.8723L16.974 38.8667L20.6136 35.2271L21.9678 36.5813L19.3243 40.8723Z" fill="#FBBE07"/>
<path d="M12.3908 46.2617H9.92395C9.43856 46.2617 9.04504 46.6552 9.04504 47.1406C9.04504 47.626 9.43856 48.0195 9.92395 48.0195H12.3908C12.8762 48.0195 13.2697 47.626 13.2697 47.1406C13.2697 46.6552 12.8762 46.2617 12.3908 46.2617Z" fill="#FBBE07"/>
</g>
<defs>
<clipPath id="clip0_45_71">
<rect width="60" height="60" fill="white"/>
</clipPath>
</defs>
</svg>
