<svg width="45" height="53" viewBox="0 0 45 53" fill="none" xmlns="http://www.w3.org/2000/svg">
<path d="M42.864 1.16518C42.1113 0.412451 41.1214 0 40.0593 0H3.96984C1.78385 0 0 1.78385 0 3.96984V46.0914C0 48.2774 1.78385 50.0613 3.96984 50.0613C4.45447 50.0613 4.8463 49.6695 4.8463 49.1848C4.8463 48.7002 4.45447 48.3084 3.96984 48.3084C2.7428 48.3084 1.75292 47.3185 1.75292 46.0914V3.96984C1.75292 2.7428 2.7428 1.75292 3.96984 1.75292H40.0593C41.2864 1.75292 42.2763 2.7428 42.2763 3.96984V46.0914C42.2763 47.3185 41.2864 48.3084 40.0593 48.3084H7.00136C6.73327 48.3084 6.4858 48.4218 6.31051 48.628C6.14553 48.8342 6.07335 49.1023 6.1249 49.3601L6.46518 51.0512C6.69202 52.1751 7.69222 53 8.83677 53H13.5181C14.673 53 15.6732 52.1854 15.8897 51.0512L16.0856 50.0613H26.8815L27.0774 51.0512C27.3043 52.1751 28.3045 53 29.449 53H34.1303C35.2852 53 36.2854 52.1854 36.5019 51.0512L36.6979 50.0613H40.0284C42.2144 50.0613 43.9982 48.2774 43.9982 46.0914V3.96984C44.0292 2.90778 43.6167 1.9179 42.864 1.16518ZM34.8109 50.7109C34.749 51.0202 34.4706 51.2471 34.151 51.2471H29.4696C29.15 51.2471 28.8716 51.0202 28.8097 50.7109L28.6757 50.0613H34.9346L34.8109 50.7109ZM14.1883 50.7109C14.1265 51.0202 13.8481 51.2471 13.5284 51.2471H8.84708C8.52743 51.2471 8.24903 51.0202 8.18716 50.7109L8.05311 50.0613H14.3121L14.1883 50.7109Z" fill="#FBBE07"/>
<path d="M22.0146 14.8792C16.4156 14.8792 11.858 19.4367 11.858 25.0358C11.858 30.6348 16.4156 35.1924 22.0146 35.1924C27.6136 35.1924 32.1712 30.6348 32.1712 25.0358C32.1712 19.4264 27.6136 14.8792 22.0146 14.8792ZM21.1381 30.4801V33.3982C19.5089 33.2332 17.9932 32.6043 16.7249 31.5731L18.7872 29.5109C19.4883 30.0058 20.272 30.3358 21.1381 30.4801ZM17.5498 28.2632L15.4875 30.3255C14.4564 29.0572 13.8274 27.5414 13.6624 25.9122H16.5805C16.7043 26.7474 17.0445 27.562 17.5498 28.2632ZM17.5395 21.798C17.0342 22.4992 16.7043 23.2829 16.5702 24.1593H13.6521C13.8171 22.5301 14.4461 21.0144 15.4772 19.7461L17.5395 21.798ZM27.3043 31.5628C26.036 32.594 24.5202 33.2229 22.891 33.3879V30.4698C23.7366 30.3358 24.5409 29.9955 25.242 29.4903L27.3043 31.5628ZM22.891 19.5811V16.663C24.5202 16.828 26.036 17.457 27.3043 18.4881L25.242 20.5504C24.5409 20.0554 23.7572 19.7255 22.891 19.5811ZM18.3025 24.4068C18.4366 23.6231 18.7872 22.9426 19.3543 22.3651C19.643 22.0764 19.6842 21.6124 19.4677 21.2722L19.4883 21.2618L16.7249 18.4984C17.9932 17.4673 19.5089 16.8383 21.1381 16.6733V20.4576V20.5813H21.1588C21.2412 20.9731 21.6021 21.2722 22.0146 21.2722C23.1282 21.2722 24.1696 21.7568 24.8811 22.6023C25.6029 23.4478 25.9019 24.5718 25.7267 25.6648C25.3864 27.7064 23.4375 29.0881 21.3856 28.7478C19.344 28.3973 17.9623 26.4484 18.3025 24.4068ZM26.4794 28.2632C26.9846 27.562 27.3146 26.7681 27.4486 25.9122H30.3667C30.2017 27.5414 29.5728 29.0572 28.5416 30.3255L26.4794 28.2632ZM30.377 24.1593H27.4589C27.3249 23.3138 26.9846 22.5095 26.4794 21.8083L28.5416 19.7461C29.5728 21.0041 30.2017 22.5301 30.377 24.1593Z" fill="#FBBE07"/>
<path d="M36.966 6.18677H7.06323C6.5786 6.18677 6.18677 6.5786 6.18677 7.06323V42.998C6.18677 43.4827 6.5786 43.8745 7.06323 43.8745H36.966C37.4506 43.8745 37.8424 43.4827 37.8424 42.998V40.3171H38.5126C38.9973 40.3171 39.3891 39.9253 39.3891 39.4407V31.1916C39.3891 30.707 38.9973 30.3152 38.5126 30.3152H37.8424V19.7461H38.5126C38.9973 19.7461 39.3891 19.3543 39.3891 18.8696V10.6206C39.3891 10.136 38.9973 9.74416 38.5126 9.74416H37.8424V7.06323C37.8424 6.5786 37.4506 6.18677 36.966 6.18677ZM35.4193 15.4154C34.9346 15.4154 34.5428 15.8072 34.5428 16.2918V18.8696C34.5428 19.3543 34.9346 19.7461 35.4193 19.7461H36.0895V30.3152H35.4193C34.9346 30.3152 34.5428 30.707 34.5428 31.1916V33.7694C34.5428 34.2541 34.9346 34.6459 35.4193 34.6459C35.9039 34.6459 36.2957 34.2541 36.2957 33.7694V32.0681H37.6362V38.5642H36.2957V36.8628C36.2957 36.3782 35.9039 35.9864 35.4193 35.9864C34.9346 35.9864 34.5428 36.3782 34.5428 36.8628V39.4407C34.5428 39.9253 34.9346 40.3171 35.4193 40.3171H36.0895V42.1216H7.93969V7.93969H36.0895V9.74416H35.4193C34.9346 9.74416 34.5428 10.136 34.5428 10.6206V13.1984C34.5428 13.6831 34.9346 14.0749 35.4193 14.0749C35.9039 14.0749 36.2957 13.6831 36.2957 13.1984V11.4971H37.6362V17.9932H36.2957V16.2918C36.2957 15.8072 35.9039 15.4154 35.4193 15.4154Z" fill="#FBBE07"/>
</svg>
