<svg width="55" height="53" viewBox="0 0 55 53" fill="none" xmlns="http://www.w3.org/2000/svg">
<path d="M54.2188 6.79688V1.45312C54.2188 1.21692 54.1249 0.990383 53.9579 0.823358C53.7909 0.656334 53.5643 0.5625 53.3281 0.5625H8.7969C8.56069 0.5625 8.33416 0.656334 8.16713 0.823358C8.00011 0.990383 7.90627 1.21692 7.90627 1.45312V5.90625H7.06018C6.3399 5.90773 5.64225 6.15794 5.0852 6.61455C4.52815 7.07116 4.14591 7.70616 4.00311 8.41214L2.7579 14.6378L4.50464 14.9872L5.74974 8.76148C5.81097 8.45889 5.97484 8.18673 6.21362 7.99103C6.45241 7.79533 6.75145 7.68811 7.06018 7.6875H7.83948V25.2773C7.84009 25.8086 8.05142 26.318 8.42709 26.6936C8.80276 27.0693 9.3121 27.2806 9.84338 27.2812H11.4688C11.6023 27.2813 11.7342 27.2513 11.8545 27.1935C11.9749 27.1357 12.0808 27.0515 12.1642 26.9473L18.7624 18.6995L19.1345 18.9654C20.3451 19.8284 21.1768 21.1245 21.4571 22.5846C21.7373 24.0447 21.4445 25.5566 20.6394 26.8065C20.6361 26.8117 20.6329 26.8169 20.6297 26.822L15.1635 35.7215C15.0772 35.8616 15.0315 36.0229 15.0313 36.1875V52.2188H16.8125V43.5686C17.5894 44.0978 18.4575 44.4786 19.3731 44.6915C21.0668 45.082 22.8432 44.8788 24.4051 44.1161L24.8051 43.9204C25.0172 43.8166 25.1795 43.6328 25.2561 43.4094C25.3327 43.186 25.3175 42.9413 25.2138 42.7291L24.4614 41.191C26.0699 41.5019 27.7359 41.278 29.2053 40.5537L29.6055 40.358C29.8176 40.2542 29.9798 40.0704 30.0565 39.847C30.1331 39.6236 30.1179 39.3789 30.0141 39.1668L28.8852 36.8586L44.4851 41.2499C44.7384 41.3213 45.0033 41.342 45.2646 41.311C45.5259 41.2799 45.7785 41.1977 46.008 41.069C46.2375 40.9403 46.4394 40.7676 46.6022 40.5609C46.765 40.3541 46.8854 40.1173 46.9566 39.864L50.4987 27.2812H53.3281C53.5643 27.2812 53.7909 27.1874 53.9579 27.0204C54.1249 26.8534 54.2188 26.6268 54.2188 26.3906V8.57812H52.4375V25.5H23.1198C23.2647 24.9172 23.3394 24.3192 23.3425 23.7188H46.3558C46.4983 23.7187 46.6387 23.6846 46.7652 23.619C46.8918 23.5535 47.0008 23.4586 47.083 23.3423C47.1653 23.2259 47.2184 23.0915 47.238 22.9504C47.2575 22.8092 47.2429 22.6654 47.1954 22.5311C47.0833 22.214 47.0632 21.8717 47.1375 21.5437C47.2118 21.2157 47.3775 20.9154 47.6153 20.6776C47.8531 20.4398 48.1534 20.2742 48.4814 20.2C48.8095 20.1257 49.1518 20.1458 49.4688 20.258C49.6032 20.3055 49.7469 20.32 49.8881 20.3005C50.0292 20.2809 50.1636 20.2277 50.2799 20.1454C50.3962 20.0632 50.4911 19.9542 50.5566 19.8277C50.6221 19.7011 50.6563 19.5607 50.6563 19.4183V7.53487C50.6563 7.39239 50.6221 7.25199 50.5566 7.12545C50.4911 6.99892 50.3962 6.88994 50.2799 6.80768C50.1636 6.72541 50.0292 6.67225 49.8881 6.65267C49.7469 6.63308 49.6032 6.64764 49.4688 6.69512C49.2002 6.79013 48.9126 6.81928 48.6303 6.78013C48.348 6.74098 48.0793 6.63467 47.8466 6.47013C47.6139 6.30559 47.4241 6.08763 47.2931 5.83453C47.1621 5.58144 47.0937 5.30061 47.0938 5.01562C47.0938 4.77942 46.9999 4.55288 46.8329 4.38586C46.6659 4.21883 46.4394 4.125 46.2031 4.125H15.0313C14.7951 4.125 14.5685 4.21883 14.4015 4.38586C14.2345 4.55288 14.1406 4.77942 14.1406 5.01562C14.1401 5.48787 13.9522 5.94061 13.6183 6.27454C13.2844 6.60847 12.8316 6.79632 12.3594 6.79688C12.1232 6.79688 11.8967 6.89071 11.7296 7.05773C11.5626 7.22476 11.4688 7.45129 11.4688 7.6875V19.2656C11.4688 19.5018 11.5626 19.7284 11.7296 19.8954C11.8967 20.0624 12.1232 20.1562 12.3594 20.1562C12.7825 20.1567 13.1917 20.3075 13.5139 20.5817C13.8361 20.856 14.0503 21.2358 14.1184 21.6534L11.0407 25.5H9.84338C9.78433 25.5 9.7277 25.4765 9.68594 25.4348C9.64418 25.393 9.62073 25.3364 9.62073 25.2773V6.79688H9.68752V2.34375H52.4375V6.79688H54.2188ZM16.8125 41.2307V36.4392L17.8999 34.6691L19.0785 37.079C19.7261 38.4117 20.7531 39.5233 22.0305 40.2741L23.2146 42.6952C22.1238 43.1222 20.9297 43.2109 19.7878 42.9497C18.6459 42.6885 17.6091 42.0895 16.8125 41.2307ZM28.0151 39.1337C26.6597 39.6716 25.1512 39.6782 23.7911 39.1522C22.431 38.6262 21.3195 37.6063 20.6786 36.2964L19.6869 34.2688L26.5853 36.2107L28.0151 39.1337ZM45.2424 39.3807C45.2344 39.4089 45.221 39.4352 45.2029 39.4581C45.1848 39.4811 45.1624 39.5003 45.1369 39.5146C45.1114 39.5288 45.0833 39.538 45.0542 39.5414C45.0252 39.5448 44.9958 39.5425 44.9676 39.5346L19.3421 32.3212L20.5588 30.3403L40.6606 36.4715C40.7784 36.5074 40.9024 36.5185 41.0247 36.5041C41.147 36.4897 41.265 36.4501 41.3712 36.3877C41.4775 36.3254 41.5696 36.2417 41.6418 36.1419C41.7141 36.0421 41.7648 35.9285 41.7909 35.8081C41.8407 35.5795 41.9351 35.3629 42.0687 35.1708C42.2022 34.9786 42.3724 34.8147 42.5693 34.6883C42.7662 34.562 42.9861 34.4756 43.2165 34.4343C43.4468 34.3929 43.683 34.3974 43.9116 34.4473C44.1354 34.4961 44.3694 34.4567 44.5649 34.3372C44.7604 34.2178 44.9022 34.0275 44.9609 33.8061L46.6987 27.2812H48.6482L45.2424 39.3807ZM44.8553 27.2812L43.4319 32.6264C42.8016 32.6469 42.1879 32.8331 41.6525 33.1663C41.1171 33.4995 40.679 33.9679 40.3824 34.5244L21.5223 28.7718L22.1428 27.7616C22.244 27.6038 22.3387 27.4436 22.4268 27.2812H44.8553ZM13.25 18.4878V8.46535C13.8657 8.30504 14.4274 7.98336 14.8773 7.53351C15.3272 7.08365 15.6489 6.52192 15.8092 5.90625H45.4252C45.6236 6.67049 46.07 7.34734 46.6942 7.83082C47.3185 8.3143 48.0854 8.57712 48.875 8.57812V18.375C47.9305 18.3761 47.025 18.7517 46.3571 19.4196C45.6893 20.0875 45.3136 20.993 45.3125 21.9375H23.1404C22.7206 20.1515 21.6646 18.5796 20.1698 17.5157L19.1114 16.7596C18.926 16.6271 18.6969 16.5707 18.4712 16.602C18.2454 16.6333 18.0403 16.75 17.898 16.928L15.3885 20.0647C14.9047 19.2839 14.139 18.7192 13.25 18.4878V18.4878Z" fill="#FBBE07"/>
<path d="M2.58132 24.6033L4.14838 16.7685L2.40164 16.4192L0.798516 24.4348C0.774703 24.5541 0.775574 24.6771 0.801076 24.7961L3.45314 37.1726V52.2189H5.23439V37.0782C5.23436 37.0155 5.22772 36.953 5.21457 36.8917L2.58132 24.6033Z" fill="#FBBE07"/>
<path d="M31.0625 20.1562C32.2955 20.1562 33.5009 19.7906 34.5261 19.1056C35.5514 18.4205 36.3504 17.4468 36.8223 16.3077C37.2942 15.1685 37.4176 13.915 37.1771 12.7056C36.9365 11.4963 36.3428 10.3854 35.4709 9.51351C34.599 8.64162 33.4881 8.04785 32.2788 7.80729C31.0694 7.56674 29.8159 7.6902 28.6767 8.16207C27.5375 8.63393 26.5638 9.43301 25.8788 10.4582C25.1938 11.4835 24.8281 12.6888 24.8281 13.9219C24.83 15.5748 25.4874 17.1594 26.6562 18.3282C27.825 19.497 29.4096 20.1544 31.0625 20.1562ZM31.0625 9.46875C31.9432 9.46875 32.8042 9.72992 33.5365 10.2192C34.2688 10.7086 34.8396 11.404 35.1766 12.2177C35.5137 13.0314 35.6019 13.9268 35.4301 14.7906C35.2582 15.6545 34.8341 16.4479 34.2113 17.0707C33.5885 17.6935 32.7951 18.1176 31.9313 18.2894C31.0674 18.4613 30.1721 18.3731 29.3584 18.036C28.5447 17.699 27.8492 17.1282 27.3599 16.3959C26.8705 15.6636 26.6094 14.8026 26.6094 13.9219C26.6107 12.7412 27.0803 11.6093 27.9151 10.7745C28.75 9.93967 29.8819 9.47008 31.0625 9.46875Z" fill="#FBBE07"/>
<path d="M47.0938 9.46875H41.75V11.25H47.0938V9.46875Z" fill="#FBBE07"/>
</svg>
