<svg width="22" height="22" viewBox="0 0 22 22" fill="none" xmlns="http://www.w3.org/2000/svg">
<g clip-path="url(#clip0_20_28)">
<path d="M21.3304 16.0279L18.4957 13.1931C18.0098 12.7072 17.3362 12.4685 16.6499 12.5409C15.9636 12.6134 15.3541 12.9885 14.9789 13.564L14.2628 14.668C14.2074 14.7533 14.1264 14.8087 14.0284 14.8258C13.9303 14.8471 13.828 14.8258 13.7428 14.7661C12.5108 13.9093 11.3215 12.9075 10.2004 11.7864C9.07931 10.6653 8.07756 9.47177 7.22075 8.2441C7.16534 8.15884 7.14402 8.05654 7.16534 7.95849C7.18665 7.86045 7.24207 7.77946 7.32732 7.72404L8.43137 7.0079C9.01111 6.63278 9.38623 6.02321 9.45869 5.34117C9.53116 4.65487 9.29245 3.98136 8.80649 3.4954L5.97603 0.664945C5.51565 0.208832 4.88477 -0.0341445 4.24109 0.00422021C3.59316 0.0383221 2.99211 0.353765 2.59141 0.856768C1.1847 2.61728 -0.588597 5.24739 0.195748 7.74536C1.13781 10.7463 3.02621 13.7175 5.65632 16.3433C7.28043 17.9717 9.04095 19.3144 10.8825 20.3375C11.0274 20.4185 11.1936 20.4355 11.3514 20.3929C11.5091 20.3503 11.6412 20.2437 11.7179 20.103C11.7989 19.9581 11.816 19.7919 11.7734 19.6341C11.7307 19.4764 11.6242 19.3443 11.4835 19.2675C9.74856 18.3042 8.08183 17.0296 6.53019 15.478C4.03222 12.98 2.25039 10.1794 1.368 7.3745C0.75843 5.44348 2.32286 3.16717 3.55479 1.62406C3.73809 1.39387 4.01517 1.24894 4.3093 1.23189C4.60343 1.21484 4.89329 1.32567 5.10217 1.53454L7.93689 4.36927C8.15856 4.59093 8.26939 4.90211 8.23529 5.21329C8.20118 5.52447 8.03067 5.80581 7.76638 5.97632L6.66233 6.69246C6.29574 6.93117 6.04424 7.29777 5.95898 7.72404C5.87373 8.15458 5.96751 8.58938 6.21901 8.95171C7.12271 10.2476 8.17134 11.4923 9.33507 12.6603C10.4903 13.8155 11.7393 14.8641 13.0437 15.7764C13.4017 16.0279 13.8365 16.1216 14.2671 16.0364C14.6976 15.9511 15.0642 15.7039 15.3029 15.333L16.0191 14.229C16.1896 13.9647 16.4709 13.7942 16.7821 13.7601C17.0975 13.726 17.4045 13.8368 17.6261 14.0585L20.4608 16.8932C20.6697 17.1021 20.7805 17.3919 20.7635 17.6861C20.7464 17.9802 20.6058 18.2573 20.3713 18.4406C18.8282 19.6725 16.5519 21.2369 14.6209 20.6274C14.3523 20.5421 14.0028 20.427 13.6575 20.2863C13.3421 20.1627 12.984 20.3204 12.8604 20.6359C12.7367 20.9513 12.8945 21.3094 13.2099 21.433C13.5936 21.5822 13.9346 21.7016 14.2458 21.7953C14.6422 21.9232 15.0727 21.9872 15.5203 21.9872C17.6304 21.9872 19.7319 20.508 21.1301 19.3997C21.6374 18.9947 21.9485 18.3894 21.9826 17.7415C22.0295 17.1106 21.7866 16.4797 21.3304 16.0279Z" fill="#FBBE07"/>
</g>
<defs>
<clipPath id="clip0_20_28">
<rect width="21.9957" height="22" fill="white"/>
</clipPath>
</defs>
</svg>
