<svg width="17" height="17" viewBox="0 0 17 17" fill="none" xmlns="http://www.w3.org/2000/svg">
<path d="M14.5107 2.48929C12.9726 0.951191 10.8476 0 8.5 0C6.15238 0 4.02738 0.951191 2.48929 2.48929C0.951191 4.02738 0 6.15238 0 8.5C0 10.8476 0.951191 12.9726 2.48929 14.5107C4.02738 16.0488 6.15238 17 8.5 17C10.8476 17 12.9726 16.0488 14.5107 14.5107C16.0488 12.9726 17 10.8476 17 8.5C17 6.15238 16.0488 4.02738 14.5107 2.48929ZM13.7821 13.7821C12.4262 15.1381 10.5643 15.9679 8.5 15.9679C6.43571 15.9679 4.57381 15.1381 3.21786 13.7821C1.88214 12.4262 1.03214 10.5643 1.03214 8.5C1.03214 6.43571 1.88214 4.57381 3.21786 3.21786C4.57381 1.8619 6.43571 1.03214 8.5 1.03214C10.5643 1.03214 12.4262 1.8619 13.7821 3.21786C15.1381 4.57381 15.9679 6.43571 15.9679 8.5C15.9679 10.5643 15.1381 12.4262 13.7821 13.7821Z" fill="#FBBE07"/>
<path d="M12.7702 7.97384H9.0262V3.4405C9.0262 3.15716 8.80358 2.91431 8.50001 2.91431C8.21667 2.91431 7.97382 3.13693 7.97382 3.4405V8.50003C7.97382 8.78336 8.21667 9.02622 8.50001 9.02622H12.7702C13.0536 9.02622 13.2964 8.8036 13.2964 8.50003C13.2964 8.21669 13.0738 7.97384 12.7702 7.97384Z" fill="#FBBE07"/>
</svg>
